<svg xmlns="http://www.w3.org/2000/svg" viewBox="0 0 856 600" width="214" height="150">
	<path d="M 600 1.388 C 600 2.152, 597.188 4.616, 593.750 6.864 C 584.130 13.155, 570.286 24.273, 560.328 33.705 C 555.850 37.946, 556.556 39.067, 572.500 53.021 C 588.154 66.720, 593.116 72.198, 592.800 75.428 C 592.512 78.373, 592.065 78.651, 582 82.144 C 563.763 88.474, 560.726 89.740, 551 95.071 C 545.775 97.935, 538.739 101.784, 535.363 103.624 C 526.601 108.403, 510.433 124.157, 502.859 135.296 C 474.941 176.356, 475.486 175.410, 471.036 190.500 C 469.252 196.550, 466.946 203.975, 465.912 207 C 455.770 236.667, 454.125 299.187, 462.445 338.739 C 466.524 358.130, 473.404 376.641, 480.199 386.505 C 486.708 395.955, 490.299 401.426, 492.996 406 C 503.785 424.302, 522.265 442.333, 538.475 450.373 C 541.789 452.017, 548.196 455.734, 552.714 458.635 C 561.534 464.298, 582.962 472.886, 596 475.983 C 624.414 482.734, 629.715 483.263, 663.702 482.740 C 691.197 482.317, 693.133 482.159, 706.500 479.251 C 752.227 469.302, 795.901 441.273, 818.871 407.133 C 821.967 402.531, 826.207 396.231, 828.294 393.133 C 834.530 383.873, 841.547 367.416, 844.126 356 C 844.685 353.525, 846.011 347.900, 847.072 343.500 C 850.599 328.877, 851.301 320.028, 851.313 290 C 851.331 243.180, 848.603 224.875, 836.259 189 C 830.673 172.763, 821.498 156.808, 811.437 145.835 C 809.251 143.451, 804.607 137.534, 801.118 132.688 C 789.726 116.864, 772.839 104.247, 749 93.749 C 733.274 86.824, 726.874 84.306, 723 83.517 C 712.663 81.411, 712.470 77.446, 722.250 68.165 C 731.455 59.429, 743.098 49.314, 748.113 45.695 C 753.433 41.857, 753.477 38.190, 748.250 34.339 C 746.188 32.819, 741.190 28.663, 737.145 25.104 C 733.099 21.544, 728.301 17.477, 726.482 16.066 C 715.573 7.601, 710 2.646, 710 1.409 C 710 0.214, 701.638 0, 655 0 C 608.744 0, 600 0.221, 600 1.388 M 632.086 25.118 C 624.843 31.747, 622 35.004, 622 36.675 C 622 38.973, 622.133 39, 633.444 39 C 648.170 39, 649.956 37.854, 650.648 27.968 C 651.214 19.865, 649.747 16.626, 645.313 16.193 C 642.571 15.925, 640.893 17.057, 632.086 25.118 M 658.693 37.700 C 655.691 38.478, 655.481 41.287, 656 73.702 C 656.551 108.071, 656.922 110.097, 661.425 103.293 C 663.992 99.413, 669.861 86.277, 672.500 78.500 C 674.441 72.783, 681.541 55.748, 685.030 48.438 C 690.119 37.774, 689.229 36.958, 672.679 37.116 C 665.980 37.180, 659.687 37.443, 658.693 37.700 M 10 81.732 C 8.625 81.985, 6.938 82.654, 6.250 83.218 C 4.551 84.613, 4.551 98.411, 6.250 99.712 C 7.749 100.861, 25.278 104.675, 33 105.533 C 38.939 106.192, 54.400 108.804, 57.251 109.629 C 58.214 109.907, 59.457 110.986, 60.013 112.025 C 60.683 113.277, 61.028 169.185, 61.033 277.606 C 61.043 461.764, 61.860 444.384, 53.135 445.510 C 50.586 445.840, 45.350 446.738, 41.500 447.507 C 37.650 448.276, 30.900 449.397, 26.500 449.998 C 13.599 451.762, 7.584 453.201, 6.250 454.844 C 5.494 455.774, 5 459.393, 5 464 C 5 476.810, -4.141 475.456, 84.549 475.780 C 151.949 476.026, 161.542 475.875, 163.588 474.534 C 168.715 471.175, 169.307 457.960, 164.500 454.179 C 163.128 453.099, 158.800 451.778, 154.307 451.067 C 150.013 450.388, 142 449.006, 136.500 447.996 C 131 446.986, 124.628 445.866, 122.339 445.507 C 114.399 444.261, 114.916 448.968, 114.886 377.659 C 114.872 342.686, 115.229 313.446, 115.680 312.682 C 117.583 309.457, 121.413 308.831, 144.261 308.012 C 157.096 307.552, 168.361 307.567, 169.620 308.046 C 170.929 308.543, 174.760 313.371, 178.693 319.481 C 182.437 325.297, 187.853 333.080, 190.728 336.778 C 199.359 347.876, 212.561 366.673, 233.731 398 C 243.906 413.059, 248.747 419.509, 255.222 426.637 C 260.993 432.989, 273.980 449.037, 280.800 458.244 C 285.876 465.096, 289.147 466.898, 302.938 470.446 C 308.680 471.923, 314.186 473.565, 315.176 474.094 C 316.166 474.624, 320.243 475.894, 324.238 476.917 C 328.232 477.939, 336.275 480.177, 342.112 481.888 C 355.546 485.828, 358.300 485.854, 362.077 482.077 C 364.516 479.638, 365 478.339, 365 474.232 C 365 468.894, 364.366 467.997, 357.199 463.188 C 342.753 453.495, 327.264 438.901, 314.357 422.821 C 309.169 416.359, 304.500 410.809, 303.980 410.488 C 303.460 410.166, 301.081 406.887, 298.694 403.202 C 296.307 399.516, 287.970 387.554, 280.167 376.620 C 272.364 365.687, 264.544 354.049, 262.791 350.759 C 261.037 347.469, 256.617 341.565, 252.967 337.638 C 246.158 330.313, 239.967 322.143, 229.510 306.683 C 221.831 295.331, 221.444 291.437, 227.523 286.661 C 229.710 284.943, 235.582 279.703, 240.571 275.018 C 245.560 270.333, 252.626 263.701, 256.273 260.281 C 263.042 253.931, 270.036 241.800, 279.206 220.500 C 288.821 198.168, 289.680 159.253, 281.007 139 C 279.476 135.425, 277.901 131.375, 277.507 130 C 276.210 125.477, 267.884 114.120, 261.567 108.258 C 254.140 101.365, 233.175 90.397, 220 86.512 C 202.784 81.434, 193.148 81.007, 99 81.145 C 51.425 81.215, 11.375 81.479, 10 81.732 M 333.479 83.430 C 331.436 85.473, 331 86.885, 331 91.455 C 331 101.063, 333.862 102.285, 368.694 107.557 C 377.624 108.909, 380.312 109.703, 381.985 111.484 L 384.081 113.715 383.719 295.108 C 383.394 457.379, 383.187 477.238, 381.748 483.500 C 379.056 495.214, 375.192 507.559, 373.102 511.123 C 372.013 512.980, 369.723 518.379, 368.013 523.120 C 366.304 527.861, 363.795 533.244, 362.439 535.083 C 361.083 536.921, 354.267 546.923, 347.291 557.311 C 333.468 577.896, 332.536 580.467, 336.932 585.884 C 338.100 587.323, 339.724 589.962, 340.541 591.750 C 341.739 594.371, 342.611 595, 345.045 595 C 346.948 595, 348.301 594.380, 348.707 593.321 C 349.934 590.125, 359.681 577.817, 373.009 562.636 C 381.094 553.426, 394.619 534.668, 398.703 527 C 402.676 519.542, 412.230 504.533, 417.197 497.948 C 418.628 496.051, 422.777 488.650, 426.419 481.500 C 438.021 458.720, 437.036 476.813, 437.285 281.900 L 437.500 114.046 440 111.563 C 442.102 109.476, 444.809 108.683, 457 106.582 C 489.253 101.023, 490.583 100.416, 490.367 91.363 C 490.265 87.115, 489.723 85.278, 488.089 83.644 L 485.945 81.500 410.952 81.225 L 335.958 80.951 333.479 83.430 M 610 99.606 C 584.230 106.538, 567.777 116.161, 557 130.603 C 532.099 163.975, 530.823 165.966, 527.269 177 C 517.164 208.372, 514.277 230.071, 515.326 266.768 C 516.403 304.410, 517.602 313.052, 526.448 346.900 C 530.932 364.057, 533.811 370.886, 541.033 381.500 C 542.530 383.700, 546.397 390.158, 549.627 395.852 C 558.257 411.064, 571.599 427.363, 581.229 434.458 C 590.778 441.493, 618.866 453.587, 632 456.318 C 652.706 460.624, 668.124 460.640, 692.682 456.380 C 727.962 450.261, 752.818 430.796, 773.619 393 C 786.842 368.975, 795.194 320.937, 793.702 277.500 C 793.161 261.730, 788.779 226.323, 786.944 222.896 C 786.427 221.928, 785.339 218.294, 784.528 214.819 C 781.946 203.757, 771.871 180.093, 765.496 170.116 C 762.198 164.955, 755.432 156.180, 750.460 150.616 C 745.488 145.052, 738.625 137.046, 735.208 132.825 C 727.795 123.669, 714.578 114.064, 702.500 109.056 C 698.100 107.232, 692.115 104.649, 689.201 103.318 C 682.793 100.390, 681.792 100.655, 674.201 107.292 C 657.360 122.018, 656.127 122.759, 651.427 120.972 C 648.244 119.762, 636.837 110.938, 630 104.397 C 622.797 97.506, 620.157 96.874, 610 99.606 M 128.262 103.476 C 120.749 104.641, 115.024 106.926, 114.985 108.773 C 114.345 138.849, 115.183 276.474, 116.016 278.029 C 116.624 279.166, 118.249 280.524, 119.626 281.048 C 125.293 283.202, 172.925 281.358, 187.463 278.421 C 202.067 275.471, 209.928 271.786, 216.731 264.702 C 228.990 251.935, 232.504 237.846, 232.493 201.500 C 232.484 167.328, 230.166 158.172, 215.109 132.829 C 210.975 125.872, 209.118 123.807, 203.830 120.289 C 181.738 105.593, 154.162 99.458, 128.262 103.476" stroke="none" fill="#64728c" fill-rule="evenodd"/>
</svg>